<svg width="200" height="100" viewBox="0 0 200 100" fill="none" xmlns="http://www.w3.org/2000/svg">
<path d="M53.5832 54.5937C55.3905 61.25 62.5103 65.1354 69.4843 63.2812C76.4582 61.4271 80.6509 54.5312 78.8436 47.8802C77.0363 41.2292 69.9165 37.3385 62.9426 39.1927C55.9634 41.0521 51.7707 47.9427 53.5832 54.5937Z" fill="#F57E16"/>
<path d="M78.625 47.9375C76.3906 39.7136 67.9063 37.448 61.974 40.0104C51.8854 44.375 55.3229 59.7084 65.2292 61.5209C72.125 62.7813 80.1198 57.698 78.625 47.9375Z" fill="#FFB300"/>
<path d="M61.9319 41.125C62.5048 41.5208 63.5934 41.9739 64.4528 41.6666C65.1767 41.4166 66.5986 40.3177 66.2757 39.9114C66.0569 39.6406 60.8798 40.3958 61.9319 41.125Z" fill="#F57E16"/>
<mask id="mask0_813_9910" style="mask-type:luminance" maskUnits="userSpaceOnUse" x="62" y="33" width="13" height="9">
<path d="M62.667 33.9844H74.667V41.3333H62.667V33.9844Z" fill="white"/>
</mask>
<g mask="url(#mask0_813_9910)">
<path d="M66.3646 38.2865C64.3542 38.5417 64.0052 39.375 63.6719 39.8177C63.6719 39.8177 63.9635 40.2448 64.2292 40.0469C64.2292 40.0469 64.4479 38.6667 66.5677 38.6146C67.7292 39.9011 70.0729 40.4219 72.099 39.1042C73.7917 38.0052 73.474 35.8542 74.1719 34.8594C72.4167 34.8802 71.2292 33.9896 69.1927 34.4792C67.1563 34.9636 66.0417 37.2031 66.3646 38.2865Z" fill="#006633"/>
<path d="M64.9691 39.0313C65.3805 38.7656 65.917 38.625 66.568 38.6094V38.6146C67.6982 39.849 70.0107 40.4479 72.0837 39.1094L72.0941 39.099C73.1722 38.4011 73.4326 37.2813 73.667 36.2917C73.792 35.7448 73.9118 35.2292 74.1618 34.8698C73.4691 34.875 72.8545 34.7344 72.2607 34.599C71.3545 34.3959 70.4222 34.1875 69.1982 34.4792C68.8128 34.5729 68.443 34.7344 68.0993 34.9532C66.792 35.7969 66.1097 37.4115 66.3701 38.2865V38.2917H66.3649C65.5993 38.3907 65.0107 38.5781 64.568 38.8646C64.1618 39.125 63.9587 39.4219 63.792 39.6615C63.7555 39.7188 63.7191 39.7709 63.6774 39.8177C63.7087 39.8594 63.9639 40.2084 64.2035 40.0573L64.2243 40.0417C64.2295 40 64.3441 39.4375 64.9691 39.0313ZM72.0889 39.1146C71.6045 39.4323 71.0785 39.6511 70.5368 39.7709C70.0316 39.8854 69.5107 39.9063 69.0055 39.8386C68.042 39.7136 67.1566 39.2709 66.5628 38.6198C65.917 38.6354 65.3857 38.7761 64.9795 39.0417C64.3337 39.4584 64.2347 40.0417 64.2347 40.0469L64.2295 40.0521L64.2139 40.0625C63.9482 40.2344 63.6722 39.8282 63.667 39.8229V39.8177C63.7035 39.7657 63.7451 39.7136 63.7816 39.6563C63.9482 39.4167 64.1514 39.1198 64.5628 38.8542C65.0055 38.5677 65.5941 38.3802 66.3597 38.2813C66.2295 37.849 66.3337 37.224 66.6305 36.6094C66.9587 35.9323 67.4795 35.3438 68.0941 34.9427C68.4378 34.724 68.8076 34.5625 69.193 34.4688C70.4222 34.1771 71.3545 34.3854 72.2607 34.5886C72.8597 34.724 73.4743 34.8646 74.1722 34.8542H74.1826L74.1774 34.8646C73.9222 35.224 73.8024 35.7448 73.6774 36.2917C73.443 37.2865 73.1826 38.4063 72.0993 39.1094L72.0889 39.1146Z" fill="#65882A"/>
</g>
<path d="M68.2868 38.0677L68.417 38.0521C69.2035 38.7813 70.2712 38.7657 71.7555 38.6563C69.8389 38.7084 69.4535 38.5625 68.6305 37.948L68.6097 37.9584C69.2347 37.7136 69.7503 37.4636 70.1826 37.1927C71.4326 37.5938 71.6982 37.6511 72.693 37.3386C71.6722 37.6302 70.8649 37.3334 70.2555 37.1198C70.4326 37.0052 70.5837 36.9011 70.7087 36.8021C71.0837 36.5052 71.5264 36.2813 72.1097 35.9844C72.4274 36.1459 72.9326 36.375 73.4378 36.0157C72.9014 36.2969 72.4847 36.1302 72.1878 35.948L72.1357 35.8855C72.6566 35.625 73.2399 35.349 73.8441 35.0313C73.042 35.4063 71.917 35.7761 70.7191 36.573C70.6201 35.823 70.943 35.2396 71.1826 35C70.7764 35.3907 70.4066 35.9063 70.4066 36.7813C70.4066 36.7813 69.7712 37.1927 69.4951 37.3386C69.4691 36.3334 69.7347 35.7865 70.4482 34.8959C69.1618 36.1146 69.1618 37.4219 69.2035 37.4427C68.5316 37.7865 67.9691 37.9636 67.4118 38.1146C67.4639 37.2188 67.4743 36.7292 69.1045 35.198C67.6357 36.3855 67.2035 36.9427 67.1722 38.1667L66.2139 38.5209C66.8285 38.4427 67.7139 38.2813 68.2868 38.0677Z" fill="#697D17"/>
<path d="M62.9531 37.0051C64.7083 39.0729 64.224 41.0416 63.9167 41.1249C63.849 41.1458 63.6875 40.1041 63.3333 39.4114C62.8958 38.5624 61.8438 37.0989 61.8438 37.0729C61.8542 36.7395 62.7031 36.6301 62.9531 37.0051Z" fill="#006633"/>
<path d="M29.7227 60.8426V37.6967C29.9831 37.0874 30.3997 36.7801 30.9727 36.7801H32.7227C33.2227 36.7801 33.4727 37.0509 33.4727 37.5926V60.4467C33.4727 65.2384 32.4935 68.7905 30.5352 71.1134C28.5872 73.4311 25.681 74.5926 21.806 74.5926C19.082 74.5926 16.8893 74.3426 15.2227 73.8426C13.556 73.3426 12.4518 72.9884 11.9102 72.7801C11.6706 72.6811 11.5195 72.5717 11.4518 72.4467C11.3945 72.3322 11.3997 72.1447 11.4727 71.8842L11.9727 69.9884C12.0664 69.5822 12.2018 69.3842 12.3685 69.3842C12.4622 69.3842 12.6081 69.4311 12.806 69.5301C13.582 69.8061 14.6497 70.1603 16.0143 70.5926C17.3737 71.0197 19.1237 71.2384 21.2643 71.2384C23.431 71.2384 25.1185 70.7853 26.3268 69.8842C27.5456 68.978 28.4154 67.7436 28.931 66.1759C29.457 64.6186 29.7227 62.8426 29.7227 60.8426ZM28.7643 54.1342V58.6342C27.8997 59.8426 26.7747 60.8374 25.3893 61.6134C23.9987 62.3894 22.3581 62.7801 20.4727 62.7801C18.1393 62.7801 16.1029 62.1863 14.3685 60.9884C12.6289 59.7957 11.2852 58.1967 10.3268 56.1967C9.37891 54.1967 8.91016 51.978 8.91016 49.5301C8.91016 47.103 9.37891 44.8842 10.3268 42.8842C11.2852 40.8842 12.6289 39.2801 14.3685 38.0717C16.1029 36.853 18.1393 36.2384 20.4727 36.2384C22.2643 36.2384 23.8737 36.6082 25.306 37.3426C26.7487 38.0822 27.8997 39.0092 28.7643 40.1342V44.8426C27.832 42.8738 26.6706 41.504 25.2852 40.7384C23.9102 39.978 22.556 39.5926 21.2227 39.5926C19.4831 39.5926 17.9727 40.0405 16.681 40.9259C15.3997 41.8009 14.4102 42.9884 13.7018 44.4884C13.0039 45.9884 12.6602 47.6707 12.6602 49.5301C12.6602 51.2384 13.0039 52.8426 13.7018 54.3426C14.4102 55.8426 15.3997 57.0613 16.681 57.9884C17.9727 58.9207 19.4831 59.3842 21.2227 59.3842C22.6497 59.3842 24.056 58.9676 25.431 58.1342C26.8164 57.3009 27.931 55.9676 28.7643 54.1342Z" fill="#4B7400"/>
<path d="M45.7793 37.8426V61.4467C45.7793 61.978 45.5293 62.2384 45.0293 62.2384H42.7793C42.2793 62.2384 42.0293 61.978 42.0293 61.4467V37.5926C42.0293 37.0509 42.2793 36.7801 42.7793 36.7801H44.0293C44.4876 36.7801 44.8105 36.853 45.0085 36.9884C45.2168 37.129 45.472 37.4155 45.7793 37.8426ZM46.7168 44.8426V40.4467C47.8105 38.9051 49.1543 37.8217 50.7376 37.1967C52.321 36.5613 54.0293 36.2384 55.8626 36.2384C56.2376 36.2384 56.4668 36.2905 56.5501 36.3842C56.6335 36.4832 56.6387 36.6707 56.571 36.9467L56.2793 39.1967C56.2064 39.4884 56.1126 39.6915 55.9876 39.8009C55.873 39.8999 55.6647 39.9467 55.3626 39.9467C53.5293 39.9467 51.847 40.3322 50.321 41.0926C48.7897 41.8582 47.5918 43.1082 46.7168 44.8426Z" fill="#3D3D3D"/>
<path d="M82.1738 49.5301C82.1738 47.1967 82.7259 45.0457 83.8405 43.0717C84.9655 41.0874 86.4759 39.478 88.3822 38.2384C90.2832 37.004 92.429 36.3374 94.8197 36.2384V39.6342C93.1217 39.7332 91.6009 40.2384 90.2572 41.1551C88.9082 42.0717 87.8405 43.2592 87.0488 44.7176C86.2676 46.1655 85.8822 47.7697 85.8822 49.5301C85.8822 51.3113 86.2676 52.9207 87.0488 54.3634C87.8405 55.8113 88.9082 56.9832 90.2572 57.8842C91.6009 58.7905 93.1217 59.2905 94.8197 59.3842V62.7801C92.429 62.6811 90.278 62.0249 88.3613 60.8009C86.4447 59.5665 84.929 57.9624 83.8197 55.9884C82.7207 54.0197 82.1738 51.8634 82.1738 49.5301ZM104.528 39.9884C104.887 40.2957 104.887 40.6447 104.528 41.0301L103.32 42.2801C103.122 42.5613 102.929 42.6967 102.736 42.6967C102.596 42.6967 102.445 42.6134 102.278 42.4467C101.471 41.6447 100.497 40.9832 99.3613 40.4676C98.2363 39.9572 97.0384 39.6759 95.778 39.6342V36.2384C97.4447 36.2697 99.028 36.6082 100.528 37.2592C102.028 37.9155 103.361 38.8217 104.528 39.9884ZM103.32 56.7384L104.528 57.9884C104.887 58.3947 104.887 58.7384 104.528 59.0301C103.361 60.1967 102.028 61.103 100.528 61.7384C99.028 62.3738 97.4447 62.7228 95.778 62.7801V59.3842C97.2467 59.3165 98.528 59.0092 99.6113 58.4676C100.695 57.9155 101.58 57.2905 102.278 56.5926C102.445 56.4259 102.596 56.3426 102.736 56.3426C102.929 56.3426 103.122 56.478 103.32 56.7384Z" fill="#FC5459"/>
<path d="M130.59 57.0301L131.528 58.1967C131.861 58.629 131.861 58.9884 131.528 59.2801C130.403 60.4207 128.903 61.2905 127.028 61.8842C125.163 62.478 123.319 62.7801 121.486 62.7801C118.986 62.7801 116.726 62.1863 114.715 60.9884C112.7 59.7957 111.095 58.1967 109.903 56.1967C108.72 54.1967 108.132 51.978 108.132 49.5301C108.132 47.1967 108.679 45.0509 109.778 43.0926C110.887 41.1238 112.382 39.5092 114.257 38.2592C116.142 37.0092 118.257 36.3374 120.59 36.2384V39.3842C118.95 39.5249 117.476 40.0509 116.174 40.9676C114.882 41.8842 113.861 43.0613 113.111 44.4884C112.361 45.9207 111.986 47.4884 111.986 49.1967V49.8842C111.986 51.6499 112.413 53.2592 113.278 54.7176C114.153 56.1655 115.309 57.3217 116.757 58.1967C118.215 59.0613 119.84 59.4884 121.632 59.4884C122.84 59.4884 124.153 59.2905 125.569 58.8842C126.986 58.4832 128.288 57.853 129.486 56.9884C129.746 56.8217 129.95 56.7384 130.09 56.7384C130.283 56.7384 130.45 56.8374 130.59 57.0301ZM133.59 50.0301C133.59 50.3374 133.549 50.5509 133.465 50.6759C133.382 50.7905 133.174 50.8426 132.84 50.8426H113.028C112.804 50.0092 112.804 49.1447 113.028 48.2384H129.736C129.705 46.879 129.366 45.5405 128.715 44.2176C128.059 42.8999 127.132 41.7905 125.924 40.8842C124.726 39.9832 123.283 39.4832 121.59 39.3842V36.2384C124.116 36.3113 126.267 36.9884 128.049 38.2801C129.84 39.5613 131.205 41.2332 132.153 43.3009C133.111 45.3582 133.59 47.603 133.59 50.0301Z" fill="#4B7400"/>
<path d="M143.354 37.8426V61.4467C143.354 61.978 143.104 62.2384 142.604 62.2384H140.354C139.854 62.2384 139.604 61.978 139.604 61.4467V37.5926C139.604 37.0509 139.854 36.7801 140.354 36.7801H141.604C142.062 36.7801 142.385 36.853 142.583 36.9884C142.791 37.129 143.046 37.4155 143.354 37.8426ZM144.291 44.8426V40.4467C145.385 38.9051 146.729 37.8217 148.312 37.1967C149.895 36.5613 151.604 36.2384 153.437 36.2384C153.812 36.2384 154.041 36.2905 154.124 36.3842C154.208 36.4832 154.213 36.6707 154.145 36.9467L153.854 39.1967C153.781 39.4884 153.687 39.6915 153.562 39.8009C153.447 39.8999 153.239 39.9467 152.937 39.9467C151.104 39.9467 149.421 40.3322 147.895 41.0926C146.364 41.8582 145.166 43.1082 144.291 44.8426Z" fill="#3D3D3D"/>
<path d="M175.29 61.4884V48.1342C175.29 44.9676 174.759 42.7488 173.707 41.4676C172.665 40.1759 170.832 39.5301 168.207 39.5301C166.592 39.5301 165.15 39.629 163.874 39.8217C162.592 40.004 161.467 40.1759 160.499 40.3426C160.426 40.3738 160.332 40.3842 160.207 40.3842C159.874 40.3842 159.65 40.1342 159.54 39.6342L159.145 38.1342C159.02 37.6342 159.217 37.3009 159.749 37.1342C159.941 37.0665 160.483 36.9676 161.374 36.8426C162.259 36.7072 163.316 36.5717 164.54 36.4467C165.775 36.3113 167.046 36.2384 168.353 36.2384C171.145 36.2384 173.316 36.6655 174.874 37.5092C176.426 38.3582 177.509 39.6707 178.124 41.4467C178.733 43.2124 179.04 45.478 179.04 48.2384V61.4467C179.04 61.978 178.79 62.2384 178.29 62.2384H176.29C175.9 62.2384 175.566 61.9884 175.29 61.4884ZM174.353 47.7384V50.6342C173.353 50.2072 172.322 49.8582 171.27 49.5926C170.228 49.3322 169.124 49.1967 167.957 49.1967C165.582 49.1967 163.775 49.6551 162.54 50.5717C161.316 51.4884 160.707 52.7957 160.707 54.4884C160.707 56.0197 161.249 57.2957 162.332 58.3217C163.415 59.3374 164.967 59.8426 166.999 59.8426C168.358 59.8426 169.712 59.4988 171.061 58.8009C172.421 58.0926 173.52 57.2749 174.353 56.3426V59.5926C173.186 60.7176 171.837 61.5301 170.311 62.0301C168.796 62.5301 167.311 62.7801 165.853 62.7801C164.254 62.7801 162.775 62.4676 161.415 61.8426C160.066 61.2072 158.983 60.2592 158.165 59.0092C157.358 57.7592 156.957 56.254 156.957 54.4884C156.957 51.754 157.895 49.7176 159.77 48.3842C161.655 47.0509 164.134 46.3842 167.207 46.3842C168.301 46.3842 169.488 46.5249 170.77 46.8009C172.061 47.0665 173.254 47.379 174.353 47.7384Z" fill="#FC5459"/>
<path d="M190.396 62.2385H188.209C187.709 62.2385 187.459 61.9781 187.459 61.4468V37.5927C187.459 37.051 187.709 36.7802 188.209 36.7802H190.396C190.73 36.7802 190.943 36.8427 191.042 36.9677C191.152 37.0822 191.209 37.2906 191.209 37.5927V61.4468C191.209 61.9781 190.938 62.2385 190.396 62.2385ZM189.251 25.8427C189.985 25.8427 190.61 26.0927 191.126 26.5927C191.636 27.0927 191.896 27.7124 191.896 28.4468C191.896 29.1708 191.636 29.7802 191.126 30.2802C190.61 30.7802 189.985 31.0302 189.251 31.0302C188.511 31.0302 187.896 30.7802 187.396 30.2802C186.896 29.7802 186.646 29.1708 186.646 28.4468C186.646 27.7124 186.896 27.0927 187.396 26.5927C187.896 26.0927 188.511 25.8427 189.251 25.8427Z" fill="#33595B"/>
</svg>
